# AST/ASF file generated using VICON BodyLanguage
# -----------------------------------------------
:version 1.10
:name VICON
:units
  mass 1.0
  length 0.45
  angle deg
:documentation
   .ast/.asf automatically generated from VICON data using
   VICON BodyBuilder and BodyLanguage model FoxedUp or BRILLIANT.MOD
:root
   order TX TY TZ RX RY RZ
   axis XYZ
   position 0 0 0  
   orientation 0 0 0 
:bonedata
  begin
     id 1 
     name lhipjoint
     direction 0.573633 -0.743009 0.344793 
     length 2.46257 
     axis 0 0 0  XYZ
  end
  begin
     id 2 
     name lfemur
     direction 0.34202 -0.939693 0  
     length 7.3842  
     axis 0 0 20  XYZ
    dof rx ry rz
    limits (-160.0 20.0)
           (-70.0 70.0)
           (-60.0 70.0)
  end
  begin
     id 3 
     name ltibia
     direction 0.34202 -0.939693 0   
     length 7.50407   
     axis 0 0 20   XYZ
    dof rx
    limits (-10.0 170.0)
  end
  begin
     id 4 
     name lfoot
     direction 0.110749 -0.304281 0.946123   
     length 1.95925   
     axis -90 7.62852e-016 20   XYZ
    dof rx rz
    limits (-45.0 90.0)
           (-70.0 20.0)
  end
  begin
     id 5 
     name ltoes
     direction 1.53554e-011 -4.21843e-011 1   
     length 0.978318   
     axis -90 7.62852e-016 20   XYZ
    dof rx
    limits (-90.0 20.0)
  end
  begin
     id 6 
     name rhipjoint
     direction -0.488109 -0.791693 0.367385   
     length 2.31113  
     axis 0 0 0  XYZ 
  end
  begin
     id 7 
     name rfemur
     direction -0.34202 -0.939693 0   
     length 7.40965   
     axis 0 0 -20   XYZ
    dof rx ry rz
    limits (-160.0 20.0)
           (-70.0 70.0)
           (-70.0 60.0)
  end
  begin
     id 8 
     name rtibia
     direction -0.34202 -0.939693 0   
     length 7.55548   
     axis 0 0 -20   XYZ
    dof rx
    limits (-10.0 170.0)
 end
 begin
     id 9 
     name rfoot
     direction -0.127594 -0.350561 0.927808   
     length 2.07199  
     axis -90 -7.62852e-016 -20   XYZ
    dof rx rz
    limits (-45.0 90.0)
           (-20.0 70.0)
  end
  begin
     id 10 
     name rtoes
     direction -1.53542e-011 -4.21909e-011 1   
     length 1.02667   
     axis -90 -7.62852e-016 -20   XYZ
    dof rx
    limits (-90.0 20.0)
  end
  begin
     id 11 
     name lowerback
     direction -0.0103342 0.997298 -0.0727278   
     length 2.02836   
     axis 0 0 0   XYZ
    dof rx ry rz
    limits (-20.0 45.0)
           (-30.0 30.0)
           (-30.0 30.0)
  end
  begin
     id 12 
     name upperback
     direction 0.0171146 0.999786 -0.011606   
     length 2.03179   
     axis 0 0 0   XYZ
    dof rx ry rz
    limits (-20.0 45.0)
           (-30.0 30.0)
           (-30.0 30.0)
  end
  begin
     id 13 
     name thorax
     direction 0.0216927 0.999513 0.0224343   
     length 2.03882   
     axis 0 0 0   XYZ
    dof rx ry rz
    limits (-20.0 45.0)
           (-30.0 30.0)
           (-30.0 30.0)
  end
  begin
     id 14 
     name lowerneck
     direction 0.000989287 0.993907 0.110221   
     length 1.75428   
     axis 0 0 0   XYZ
    dof rx ry rz
    limits (-20.0 45.0)
           (-30.0 30.0)
           (-30.0 30.0)
  end
  begin
     id 15 
     name upperneck
     direction -0.0172474 0.994813 -0.100253   
     length 1.77058   
     axis 0 0 0   XYZ
    dof rx ry rz
    limits (-20.0 45.0)
           (-30.0 30.0)
           (-30.0 30.0)
  end
  begin
     id 16
     name head
     direction -0.00486455 0.99894 -0.0457663  
     length 1.77427  
     axis 0 0 0   XYZ
    dof rx ry rz
    limits (-20.0 45.0)
           (-30.0 30.0)
           (-30.0 30.0)
  end
  begin
     id 17 
     name lclavicle
     direction 0.927314 0.333734 -0.169441  
     length 3.97584  
     axis 0 0 0   XYZ
    dof ry rz
    limits (-20.0 10.0)
           (0.0 20.0)
  end
  begin
     id 18 
     name lhumerus
     direction 1 -4.48965e-011 -3.25313e-028   
     length 4.76468   
     axis 180 -30 -90   XYZ
    dof rx ry rz
    limits (-60.0 90.0)
           (-90.0 90.0)
           (-90.0 90.0)
  end
  begin
     id 19
     name lradius
     direction 1 -4.48969e-011 -2.8465e-028   
     length 3.52712   
     axis -180 -30 -90   XYZ
    dof rx
    limits (-10.0 170.0)
  end
  begin
     id 20
     name lwrist
     direction 1 -4.4896e-011 -7.78665e-028   
     length 1.76356   
     axis 1.91374e-015 90 90   XYZ
    dof ry
    limits (-180.0 0.0)
 end
  begin
     id 21 
     name lhand
     direction 1 -4.48959e-011 -1.55733e-027   
     length 0.859564   
     axis 9.9371e-016 90 90   XYZ
    dof rx rz
    limits (-90.0 90.0)
           (-45.0 45.0)
  end
  begin
     id 22 
     name lfingers
     direction 1 -4.48965e-011 -3.11466e-027   
     length 0.693002   
     axis 1.98742e-015 90 90   XYZ
    dof rx
    limits (0.0 90.0)
  end
  begin
     id 23
     name lthumb
     direction 0.707107 -6.34948e-011 0.707107   
     length 0.995017   
     axis -90 45 2.85299e-015   XYZ
    dof rx rz
    limits (-45.0 45.0)
           (-45.0 45.0)
  end
  begin
     id 24 
     name rclavicle
     direction -0.899388 0.348209 -0.264294   
     length 3.68366  
     axis 0 0 0   XYZ 
    dof ry rz
    limits (-10.0 20.0)
           (-20.0 0.0)
  end
  begin
     id 25 
     name rhumerus
     direction -1 -4.48965e-011 -3.01536e-027  
     length 4.90577   
     axis 180 30 90   XYZ
    dof rx ry rz
    limits (-90.0 60.0)
           (-90.0 90.0)
           (-90.0 90.0)
  end
  begin
     id 26 
     name rradius
     direction -1 -4.48966e-011 3.93291e-027   
     length 3.42692   
     axis -180 30 90   XYZ
    dof rx
    limits (-10.0 170.0)
  end
  begin
     id 27 
     name rwrist
     direction -1 -4.48969e-011 -7.78665e-028   
     length 1.71346   
     axis 1.91374e-015 -90 -90   XYZ
    dof ry
    limits (-180.0 0.0)
  end
  begin
     id 28
     name rhand
     direction -1 -4.48967e-011 -1.55733e-027   
     length 0.740957   
     axis 9.9371e-016 -90 -90   XYZ
    dof rx rz
    limits (-90.0 90.0)
           (-45.0 45.0)
  end
  begin
     id 29
     name rfingers
     direction -1 -4.48949e-011 -3.11466e-027   
     length 0.597378   
     axis 1.98742e-015 -90 -90   XYZ
    dof rx
    limits (0.0 90.0)
  end
  begin
     id 30
     name rthumb
     direction -0.707107 -6.34931e-011 0.707107   
     length 0.857719   
     axis -90 -45 -2.85299e-015   XYZ
    dof rx rz
    limits (-45.0 45.0)
           (-45.0 45.0)
  end
:hierarchy
  begin
    root lhipjoint rhipjoint lowerback
    lhipjoint lfemur
    lfemur ltibia
    ltibia lfoot
    lfoot ltoes
    rhipjoint rfemur
    rfemur rtibia
    rtibia rfoot
    rfoot rtoes
    lowerback upperback
    upperback thorax
    thorax lowerneck lclavicle rclavicle
    lowerneck upperneck
    upperneck head
    lclavicle lhumerus
    lhumerus lradius
    lradius lwrist
    lwrist lhand lthumb
    lhand lfingers
    rclavicle rhumerus
    rhumerus rradius
    rradius rwrist
    rwrist rhand rthumb
    rhand rfingers
  end

#!OML:ASF E:\I on waltz\AllaLogoMonkeySwing\Project 1\Capture day 1\Session 1\Subject1.ASF
:FULLY-SPECIFIED
:DEGREES
48
root 1.89029 14.7719 1.22355 19.2022 0.328248 -2.7854
lowerback 42.9174 1.78227 -1.37982
upperback 10.7855 1.80401 2.15917
thorax -8.31442 0.74563 2.26945
lowerneck -13.6473 0.79181 -1.91045
upperneck 18.6218 2.04047 -2.6069
head 8.03173 0.571057 -0.326999
rclavicle -9.64106e-015 -4.02539e-015
rhumerus -2.87638 -0.275957 -78.0162
rradius 61.316
rwrist -7.72522
rhand -7.1924 -36.5821
rfingers 7.12502
rthumb 18.6858 -65.7046
lclavicle -9.64106e-015 -4.02539e-015
lhumerus -17.1184 3.14821 85.1068
lradius 75.8787
lwrist 9.91122
lhand -11.1835 -17.1872
lfingers 7.12502
lthumb 14.8437 12.2611
rfemur -73.6731 -11.1939 27.1356
rtibia 74.3662
rfoot -19.6257 -0.351245
rtoes 19.6329
lfemur -72.2766 10.6572 -22.2838
ltibia 75.2983
lfoot -26.5854 -7.68039
ltoes -13.4764
49
root 1.87451 14.4645 1.13038 18.9872 0.471425 -2.81509
lowerback 43.549 1.86903 -1.49396
upperback 11.0684 1.85641 2.23057
thorax -8.18159 0.760146 2.37827
lowerneck -13.5477 0.777933 -2.09976
upperneck 18.1564 2.01486 -2.46253
head 7.8556 0.569587 -0.251092
rclavicle 1.58531e-014 1.21756e-014
rhumerus -2.55198 -0.583364 -77.5153
rradius 61.4595
rwrist -7.75613
rhand -7.11002 -36.7023
rfingers 7.12502
rthumb 18.765 -65.8172
lclavicle 1.58531e-014 1.21756e-014
lhumerus -16.4401 3.54383 84.816
lradius 75.4477
lwrist 9.89655
lhand -11.1092 -16.7828
lfingers 7.12502
lthumb 14.9153 12.6602
rfemur -76.0861 -11.6883 27.7492
rtibia 77.626
rfoot -20.3258 -0.44068
rtoes 18.8029
lfemur -74.6604 10.7926 -22.4284
ltibia 78.5654
lfoot -27.3478 -7.78989
ltoes -12.9349
50
root 1.85444 14.139 1.04265 18.6391 0.86052 -2.70648
lowerback 44.4562 1.75719 -1.6901
upperback 11.1451 1.62678 2.17412
thorax -8.33214 0.654552 2.50749
lowerneck -13.1959 0.794911 -2.27565
upperneck 17.4119 2.0062 -2.29758
head 7.54349 0.586232 -0.170822
rclavicle 3.83786e-015 6.16485e-015
rhumerus -2.5695 -0.699095 -77.3965
rradius 61.5851
rwrist -7.42121
rhand -6.59867 -36.8438
rfingers 7.12502
rthumb 19.2568 -65.9104
lclavicle 3.83786e-015 6.16485e-015
lhumerus -16.1292 4.17511 84.1501
lradius 74.922
lwrist 9.83423
lhand -10.9197 -16.4122
lfingers 7.12502
lthumb 15.0978 13.0172
rfemur -78.4425 -12.39 28.2586
rtibia 80.8537
rfoot -21.4418 -0.965537
rtoes 15.5897
lfemur -76.9285 10.639 -22.5954
ltibia 81.8074
lfoot -27.791 -7.87418
ltoes -12.6756
51
root 1.81445 13.8453 0.94624 17.7679 1.4982 -2.5303
lowerback 46.3111 1.65198 -1.95699
upperback 11.022 1.37633 2.23079
thorax -8.94623 0.541138 2.79943
lowerneck -13.0837 0.893932 -2.42049
upperneck 16.9804 2.10232 -2.03483
head 7.37715 0.655385 -0.0527186
rclavicle 4.42296e-015 -1.50828e-014
rhumerus -2.80494 -0.772704 -77.2528
rradius 61.637
rwrist -6.94947
rhand -6.20531 -36.805
rfingers 7.12502
rthumb 19.635 -65.8335
lclavicle 4.42296e-015 -1.50828e-014
lhumerus -16.0891 4.78586 83.5053
lradius 74.4346
lwrist 9.67888
lhand -10.7549 -16.1849
lfingers 7.12502
lthumb 15.2566 13.2325
rfemur -80.0649 -13.2147 28.4845
rtibia 83.9684
rfoot -21.5201 -0.941791
rtoes 17.3332
lfemur -78.3703 10.3559 -22.6402
ltibia 84.7571
lfoot -28.3215 -7.98247
ltoes -12.6585
52
root 1.79408 13.5367 0.858898 17.1363 1.82806 -2.53746
lowerback 47.467 1.57233 -1.93261
upperback 10.9937 1.27551 2.21163
thorax -9.25492 0.496092 2.80459
lowerneck -12.998 0.951326 -2.49475
upperneck 16.4263 2.15288 -1.91199
head 7.17867 0.696962 0.00256837
rclavicle -5.36719e-015 -4.77083e-015
rhumerus -3.07399 -1.06582 -77.0526
rradius 61.6143
rwrist -6.50389
rhand -6.18576 -36.7877
rfingers 7.12502
rthumb 19.6538 -65.8142
lclavicle -5.36719e-015 -4.77083e-015
lhumerus -15.9986 5.27394 83.0384
lradius 73.8972
lwrist 9.21666
lhand -10.3711 -16.0283
lfingers 7.12502
lthumb 15.6263 13.3606
rfemur -81.9731 -13.6616 28.8038
rtibia 86.9945
rfoot -22.9966 -1.11396
rtoes 17.2649
lfemur -80.183 10.3814 -22.6909
ltibia 87.7239
lfoot -28.858 -7.92713
ltoes -13.5806
53
root 1.77419 13.2239 0.771678 16.5738 2.14325 -2.48546
lowerback 49.2006 1.5173 -1.90147
upperback 10.0718 1.18554 2.20046
thorax -9.27024 0.443866 2.77147
lowerneck -12.7431 0.935412 -2.49791
upperneck 15.4507 2.0891 -1.87889
head 6.81767 0.689707 0.00337399
rclavicle -5.96354e-016 5.06901e-015
rhumerus -3.22608 -1.42979 -76.8398
rradius 61.4734
rwrist -6.11957
rhand -6.29769 -36.6686
rfingers 7.12502
rthumb 19.5462 -65.706
lclavicle -5.96354e-016 5.06901e-015
lhumerus -15.7291 5.79948 82.7098
lradius 73.2295
lwrist 8.49892
lhand -9.8868 -16.0148
lfingers 7.12502
lthumb 16.0927 13.337
rfemur -83.9599 -14.0329 29.0487
rtibia 89.9644
rfoot -23.8079 -1.43832
rtoes 16.8554
lfemur -82.1056 10.3323 -22.8312
ltibia 90.6159
lfoot -29.2677 -7.76954
ltoes -14.5629
54
root 1.75819 12.9081 0.685684 15.8067 2.79332 -2.40927
lowerback 50.2671 1.20053 -1.62575
upperback 10.0822 0.943091 2.18861
thorax -9.39554 0.335818 2.73086
lowerneck -12.6189 0.842394 -2.80203
upperneck 14.4532 1.91576 -1.42725
head 6.46812 0.647204 0.177777
rclavicle -1.39149e-015 3.23025e-015
rhumerus -3.3731 -1.73927 -76.6399
rradius 61.3
rwrist -5.89308
rhand -6.52324 -36.5268
rfingers 7.12502
rthumb 19.3293 -65.5861
lclavicle -1.39149e-015 3.23025e-015
lhumerus -15.4783 6.34958 82.4944
lradius 72.5706
lwrist 7.87917
lhand -9.76696 -16.4145
lfingers 7.12502
lthumb 16.208 12.9279
rfemur -85.7065 -14.7553 29.3098
rtibia 92.9126
rfoot -24.1019 -1.89726
rtoes 15.8534
lfemur -83.7821 9.87844 -22.8842
ltibia 93.4327
lfoot -29.5566 -7.54405
ltoes -14.7323
55
root 1.74394 12.5921 0.603931 15.0495 3.2935 -2.39857
lowerback 51.2097 0.926207 -1.31875
upperback 10.0831 0.770687 2.16241
thorax -9.50725 0.259508 2.63326
lowerneck -12.5954 0.744033 -3.34693
upperneck 13.4279 1.74776 -0.700461
head 6.126 0.615371 0.478375
rclavicle 3.18055e-015 -1.60022e-014
rhumerus -3.58638 -2.1095 -76.4506
rradius 61.2233
rwrist -5.74435
rhand -6.49843 -36.7239
rfingers 7.12502
rthumb 19.3532 -65.7808
lclavicle 3.18055e-015 -1.60022e-014
lhumerus -15.2914 6.98058 82.4019
lradius 72.0308
lwrist 7.18077
lhand -9.70906 -17.0171
lfingers 7.12502
lthumb 16.2638 12.3208
rfemur -87.447 -15.3229 29.5517
rtibia 95.7815
rfoot -23.7696 -2.00848
rtoes 16.1082
lfemur -85.463 9.55988 -22.9174
ltibia 96.197
lfoot -29.8193 -7.45543
ltoes -14.0665
56
root 1.72762 12.2873 0.519618 14.2545 3.74994 -2.43779
lowerback 52.1686 0.64696 -1.0287
upperback 10.0039 0.589584 2.1208
thorax -9.7019 0.18135 2.53384
lowerneck -12.2167 0.769237 -3.60585
upperneck 12.0358 1.73521 -0.34534
head 5.61597 0.649617 0.62183
rclavicle -7.95139e-015 2.26118e-014
rhumerus -3.90604 -2.43317 -76.3189
rradius 61.2126
rwrist -5.6883
rhand -6.16523 -36.9679
rfingers 7.12502
rthumb 19.6735 -65.9924
lclavicle -7.95139e-015 2.26118e-014
lhumerus -15.2796 7.80088 82.3549
lradius 71.7178
lwrist 6.31661
lhand -9.58189 -17.3597
lfingers 7.12502
lthumb 16.3862 11.9681
rfemur -89.0888 -15.7901 29.7358
rtibia 98.4178
rfoot -25.4406 -2.34072
rtoes 15.3781
lfemur -87.051 9.27592 -22.8529
ltibia 98.814
lfoot -30.0231 -7.29696
ltoes -14.6009
57
root 1.7124 11.9668 0.439075 13.7594 4.2423 -2.55407
lowerback 52.4945 0.300657 -0.748904
upperback 9.93233 0.328892 2.03816
thorax -9.80618 0.0719664 2.4301
lowerneck -11.5573 0.850355 -3.59394
upperneck 10.4427 1.76835 -0.198614
head 5.00502 0.70522 0.655006
rclavicle -1.98785e-015 -1.36167e-014
rhumerus -4.41623 -2.56451 -76.3488
rradius 61.3004
rwrist -5.74719
rhand -6.01894 -37.1547
rfingers 7.12502
rthumb 19.8142 -66.1647
lclavicle -1.98785e-015 -1.36167e-014
lhumerus -15.5381 8.74022 82.206
lradius 71.7613
lwrist 5.58203
lhand -9.52338 -17.4152
lfingers 7.12502
lthumb 16.4426 11.9079
rfemur -91.1103 -16.2015 30.2426
rtibia 101.041
rfoot -25.8127 -3.08314
rtoes 13.3485
lfemur -89.109 8.89831 -22.7185
ltibia 101.406
lfoot -30.0394 -7.22798
ltoes -14.5779
58
root 1.70102 11.6607 0.358412 13.218 4.65458 -2.57461
lowerback 52.6397 0.00894926 -0.577876
upperback 10.0458 0.0754218 1.95662
thorax -9.6812 -0.0364419 2.37293
lowerneck -11.4906 0.856376 -3.76068
upperneck 9.05266 1.74708 0.100697
head 4.55868 0.730935 0.764476
rclavicle 8.34896e-015 -1.19271e-014
rhumerus -4.65707 -2.73559 -76.3633
rradius 61.4303
rwrist -5.82254
rhand -5.79784 -37.3682
rfingers 7.12502
rthumb 20.0267 -66.3562
lclavicle 8.34896e-015 -1.19271e-014
lhumerus -15.4915 9.74871 82.2071
lradius 71.9978
lwrist 5.19345
lhand -9.41963 -17.3298
lfingers 7.12502
lthumb 16.5425 11.9851
rfemur -93.0139 -16.644 30.4731
rtibia 103.498
rfoot -24.5485 -2.79687
rtoes 14.6766
lfemur -90.9799 8.50455 -22.7042
ltibia 103.814
lfoot -30.1035 -7.01755
ltoes -15.0702
59
root 1.69124 11.3655 0.278673 12.6478 5.02293 -2.5137
lowerback 52.6107 -0.167272 -0.240318
upperback 10.1002 0.0204645 1.73526
thorax -9.61062 -0.0480885 1.99763
lowerneck -10.942 0.696731 -3.45449
upperneck 7.18969 1.41879 0.36983
head 4.33308 0.615693 0.849439
rclavicle -1.33186e-014 -6.95746e-016
rhumerus -5.3027 -3.65353 -76.4378
rradius 61.5984
rwrist -5.81096
rhand -5.40223 -37.4223
rfingers 7.12502
rthumb 20.4069 -66.37
lclavicle -1.33186e-014 -6.95746e-016
lhumerus -15.4306 10.0174 82.2433
lradius 72.2461
lwrist 5.25096
lhand -9.39193 -17.266
lfingers 7.12502
lthumb 16.5691 12.0467
rfemur -94.9137 -17.1267 30.6727
rtibia 105.84
rfoot -24.627 -2.71234
rtoes 16.1032
lfemur -92.7358 8.09101 -22.785
ltibia 106.073
lfoot -30.1001 -6.84558
ltoes -15.5444
60
root 1.68094 11.0841 0.197286 12.0005 5.39651 -2.42887
lowerback 52.5837 -0.361005 -0.0273984
upperback 10.102 -0.108896 1.57395
thorax -9.59946 -0.0943459 1.77901
lowerneck -10.1914 0.587703 -3.39162
upperneck 5.61232 1.18552 0.813274
head 3.62332 0.544967 0.948333
rclavicle 8.15017e-015 -3.8763e-015
rhumerus -5.92724 -4.27433 -76.5048
rradius 61.6948
rwrist -5.75028
rhand -5.28937 -37.1326
rfingers 7.12502
rthumb 20.5154 -66.0686
lclavicle 8.15017e-015 -3.8763e-015
lhumerus -15.4699 10.4526 82.3398
lradius 72.52
lwrist 5.59302
lhand -9.57373 -17.2331
lfingers 7.12502
lthumb 16.3941 12.094
rfemur -96.7373 -17.6709 30.8739
rtibia 108.026
rfoot -25.5061 -2.82781
rtoes 16.3986
lfemur -94.313 7.63969 -22.8721
ltibia 108.142
lfoot -29.9067 -6.7598
ltoes -15.3043
61
root 1.66623 10.8146 0.11686 11.307 5.65807 -2.46221
lowerback 52.5177 -0.488808 0.0884144
upperback 10.0617 -0.208371 1.46435
thorax -9.6341 -0.13093 1.64908
lowerneck -9.44299 0.559761 -3.23451
upperneck 4.14167 1.08029 1.04349
head 2.96951 0.521361 0.967693
rclavicle -1.19271e-015 -8.94531e-016
rhumerus -6.55994 -4.61417 -76.5667
rradius 61.8302
rwrist -5.64757
rhand -5.38886 -36.7942
rfingers 7.12502
rthumb 20.4198 -65.7405
lclavicle -1.19271e-015 -8.94531e-016
lhumerus -15.5853 10.8824 82.4198
lradius 72.795
lwrist 6.22907
lhand -9.90904 -17.0855
lfingers 7.12502
lthumb 16.0712 12.268
rfemur -98.322 -18.0532 31.1875
rtibia 109.927
rfoot -24.3184 -2.64038
rtoes 17.733
lfemur -95.8204 7.41801 -22.8819
ltibia 110.076
lfoot -29.6579 -6.88175
ltoes -13.9435
62
root 1.64687 10.564 0.0370739 10.4024 5.79215 -2.77489
lowerback 52.4956 -0.557249 0.276011
upperback 10.0517 -0.205656 1.37021
thorax -9.64214 -0.126063 1.45845
lowerneck -8.5705 0.494336 -2.70975
upperneck 2.39347 0.912942 0.871621
head 2.21974 0.454178 0.787379
rclavicle -8.94531e-015 9.83984e-015
rhumerus -7.10961 -4.96987 -76.7446
rradius 62.0547
rwrist -5.72546
rhand -5.38044 -36.8483
rfingers 7.12502
rthumb 20.4278 -65.7937
lclavicle -8.94531e-015 9.83984e-015
lhumerus -15.6435 11.2366 82.4718
lradius 73.0018
lwrist 7.02371
lhand -10.2471 -17.0482
lfingers 7.12502
lthumb 15.7457 12.3313
rfemur -99.4796 -18.2187 31.7417
rtibia 111.631
rfoot -24.1003 -2.88795
rtoes 17.7753
lfemur -97.0641 7.58364 -22.6579
ltibia 111.865
lfoot -29.403 -7.52245
ltoes -10.5294
